<mxfile host="app.diagrams.net" modified="2022-10-06T12:19:56.726Z" agent="5.0 (Windows NT 10.0; Win64; x64) AppleWebKit/537.36 (KHTML, like Gecko) Chrome/105.0.0.0 Safari/537.36" etag="T1Z5jcgB1-AnSdsMuMDb" version="20.4.0" type="github" pages="2">
  <diagram name="Page-1" id="e7e014a7-5840-1c2e-5031-d8a46d1fe8dd">
    <mxGraphModel dx="1380" dy="762" grid="1" gridSize="10" guides="1" tooltips="1" connect="1" arrows="1" fold="1" page="1" pageScale="1" pageWidth="2336" pageHeight="1654" background="none" math="0" shadow="0">
      <root>
        <mxCell id="0" />
        <mxCell id="1" parent="0" />
        <mxCell id="MdyELVImYBaChDlTUYfh-43" value="продавец" style="shape=umlActor;verticalLabelPosition=bottom;verticalAlign=top;html=1;outlineConnect=0;fontFamily=Helvetica;" vertex="1" parent="1">
          <mxGeometry x="370" y="320" width="30" height="60" as="geometry" />
        </mxCell>
        <mxCell id="MdyELVImYBaChDlTUYfh-44" value="бухгалтерская система" style="shape=umlActor;verticalLabelPosition=bottom;verticalAlign=top;html=1;outlineConnect=0;" vertex="1" parent="1">
          <mxGeometry x="760" y="320" width="30" height="60" as="geometry" />
        </mxCell>
        <mxCell id="MdyELVImYBaChDlTUYfh-48" value="" style="endArrow=classic;html=1;rounded=0;" edge="1" parent="1">
          <mxGeometry width="50" height="50" relative="1" as="geometry">
            <mxPoint x="410" y="350" as="sourcePoint" />
            <mxPoint x="510" y="320" as="targetPoint" />
          </mxGeometry>
        </mxCell>
        <mxCell id="MdyELVImYBaChDlTUYfh-50" value="" style="endArrow=classic;html=1;rounded=0;" edge="1" parent="1">
          <mxGeometry width="50" height="50" relative="1" as="geometry">
            <mxPoint x="650" y="320" as="sourcePoint" />
            <mxPoint x="740" y="350" as="targetPoint" />
          </mxGeometry>
        </mxCell>
        <mxCell id="MdyELVImYBaChDlTUYfh-53" value="" style="ellipse;whiteSpace=wrap;html=1;" vertex="1" parent="1">
          <mxGeometry x="520" y="420" width="120" height="80" as="geometry" />
        </mxCell>
        <mxCell id="MdyELVImYBaChDlTUYfh-54" value="" style="endArrow=classic;html=1;rounded=0;" edge="1" parent="1">
          <mxGeometry width="50" height="50" relative="1" as="geometry">
            <mxPoint x="410" y="380" as="sourcePoint" />
            <mxPoint x="510" y="440" as="targetPoint" />
          </mxGeometry>
        </mxCell>
        <mxCell id="MdyELVImYBaChDlTUYfh-56" value="" style="group" vertex="1" connectable="0" parent="1">
          <mxGeometry x="520" y="270" width="120" height="110" as="geometry" />
        </mxCell>
        <mxCell id="MdyELVImYBaChDlTUYfh-42" value="" style="ellipse;whiteSpace=wrap;html=1;" vertex="1" parent="MdyELVImYBaChDlTUYfh-56">
          <mxGeometry width="120" height="80" as="geometry" />
        </mxCell>
        <mxCell id="MdyELVImYBaChDlTUYfh-55" value="ввести новый заказ" style="text;html=1;strokeColor=none;fillColor=none;align=center;verticalAlign=middle;whiteSpace=wrap;rounded=0;" vertex="1" parent="MdyELVImYBaChDlTUYfh-56">
          <mxGeometry y="80" width="120" height="30" as="geometry" />
        </mxCell>
        <mxCell id="MdyELVImYBaChDlTUYfh-60" value="изменить существующий заказ" style="text;html=1;strokeColor=none;fillColor=none;align=center;verticalAlign=middle;whiteSpace=wrap;rounded=0;" vertex="1" parent="1">
          <mxGeometry x="490" y="500" width="200" height="30" as="geometry" />
        </mxCell>
        <mxCell id="MdyELVImYBaChDlTUYfh-62" value="управляющий магазином" style="shape=umlActor;verticalLabelPosition=bottom;verticalAlign=top;html=1;outlineConnect=0;fontFamily=Helvetica;" vertex="1" parent="1">
          <mxGeometry x="380" y="680" width="30" height="60" as="geometry" />
        </mxCell>
        <mxCell id="MdyELVImYBaChDlTUYfh-63" value="" style="ellipse;whiteSpace=wrap;html=1;" vertex="1" parent="1">
          <mxGeometry x="520" y="600" width="120" height="80" as="geometry" />
        </mxCell>
        <mxCell id="MdyELVImYBaChDlTUYfh-64" value="" style="ellipse;whiteSpace=wrap;html=1;fontFamily=Helvetica;" vertex="1" parent="1">
          <mxGeometry x="525" y="746" width="120" height="80" as="geometry" />
        </mxCell>
        <mxCell id="MdyELVImYBaChDlTUYfh-65" value="напечатать инвентарную опись" style="text;html=1;strokeColor=none;fillColor=none;align=center;verticalAlign=middle;whiteSpace=wrap;rounded=0;fontFamily=Helvetica;" vertex="1" parent="1">
          <mxGeometry x="500" y="680" width="180" height="30" as="geometry" />
        </mxCell>
        <mxCell id="MdyELVImYBaChDlTUYfh-66" value="обновить инвентарную опись" style="text;html=1;strokeColor=none;fillColor=none;align=center;verticalAlign=middle;whiteSpace=wrap;rounded=0;fontFamily=Helvetica;" vertex="1" parent="1">
          <mxGeometry x="500" y="826" width="170" height="30" as="geometry" />
        </mxCell>
        <mxCell id="MdyELVImYBaChDlTUYfh-68" value="" style="endArrow=classic;html=1;rounded=0;fontFamily=Helvetica;" edge="1" parent="1">
          <mxGeometry width="50" height="50" relative="1" as="geometry">
            <mxPoint x="420" y="710" as="sourcePoint" />
            <mxPoint x="520" y="660" as="targetPoint" />
          </mxGeometry>
        </mxCell>
        <mxCell id="MdyELVImYBaChDlTUYfh-69" value="" style="endArrow=classic;html=1;rounded=0;fontFamily=Helvetica;" edge="1" parent="1">
          <mxGeometry width="50" height="50" relative="1" as="geometry">
            <mxPoint x="420" y="730" as="sourcePoint" />
            <mxPoint x="520" y="780" as="targetPoint" />
          </mxGeometry>
        </mxCell>
        <mxCell id="MdyELVImYBaChDlTUYfh-70" value="" style="ellipse;whiteSpace=wrap;html=1;fontFamily=Helvetica;" vertex="1" parent="1">
          <mxGeometry x="480" y="890" width="120" height="80" as="geometry" />
        </mxCell>
        <mxCell id="MdyELVImYBaChDlTUYfh-71" value="" style="ellipse;whiteSpace=wrap;html=1;fontFamily=Helvetica;" vertex="1" parent="1">
          <mxGeometry x="740" y="860" width="120" height="80" as="geometry" />
        </mxCell>
        <mxCell id="MdyELVImYBaChDlTUYfh-72" value="" style="ellipse;whiteSpace=wrap;html=1;fontFamily=Helvetica;" vertex="1" parent="1">
          <mxGeometry x="520" y="1020" width="120" height="80" as="geometry" />
        </mxCell>
        <mxCell id="MdyELVImYBaChDlTUYfh-73" value="клерк в магазине" style="shape=umlActor;verticalLabelPosition=bottom;verticalAlign=top;html=1;outlineConnect=0;fontFamily=Helvetica;" vertex="1" parent="1">
          <mxGeometry x="380" y="970" width="30" height="60" as="geometry" />
        </mxCell>
        <mxCell id="MdyELVImYBaChDlTUYfh-74" value="оформить заказ" style="text;html=1;strokeColor=none;fillColor=none;align=center;verticalAlign=middle;whiteSpace=wrap;rounded=0;fontFamily=Helvetica;" vertex="1" parent="1">
          <mxGeometry x="530" y="980" width="100" height="30" as="geometry" />
        </mxCell>
        <mxCell id="MdyELVImYBaChDlTUYfh-75" value="отклонить заказ" style="text;html=1;strokeColor=none;fillColor=none;align=center;verticalAlign=middle;whiteSpace=wrap;rounded=0;fontFamily=Helvetica;" vertex="1" parent="1">
          <mxGeometry x="750" y="940" width="100" height="30" as="geometry" />
        </mxCell>
        <mxCell id="MdyELVImYBaChDlTUYfh-76" value="выполнить поставку заказа" style="text;html=1;strokeColor=none;fillColor=none;align=center;verticalAlign=middle;whiteSpace=wrap;rounded=0;fontFamily=Helvetica;" vertex="1" parent="1">
          <mxGeometry x="500" y="1110" width="170" height="30" as="geometry" />
        </mxCell>
        <mxCell id="MdyELVImYBaChDlTUYfh-77" value="" style="endArrow=classic;html=1;rounded=0;fontFamily=Helvetica;entryX=0.008;entryY=0.7;entryDx=0;entryDy=0;entryPerimeter=0;" edge="1" parent="1" target="MdyELVImYBaChDlTUYfh-70">
          <mxGeometry width="50" height="50" relative="1" as="geometry">
            <mxPoint x="420" y="1000" as="sourcePoint" />
            <mxPoint x="510" y="960" as="targetPoint" />
          </mxGeometry>
        </mxCell>
        <mxCell id="MdyELVImYBaChDlTUYfh-78" value="" style="endArrow=classic;html=1;rounded=0;fontFamily=Helvetica;entryX=0.05;entryY=0.313;entryDx=0;entryDy=0;entryPerimeter=0;" edge="1" parent="1" target="MdyELVImYBaChDlTUYfh-72">
          <mxGeometry width="50" height="50" relative="1" as="geometry">
            <mxPoint x="440" y="1020" as="sourcePoint" />
            <mxPoint x="510" y="1050" as="targetPoint" />
          </mxGeometry>
        </mxCell>
        <mxCell id="MdyELVImYBaChDlTUYfh-79" value="" style="endArrow=classic;html=1;rounded=0;fontFamily=Helvetica;entryX=1.017;entryY=0.4;entryDx=0;entryDy=0;entryPerimeter=0;exitX=-0.025;exitY=0.625;exitDx=0;exitDy=0;exitPerimeter=0;" edge="1" parent="1" source="MdyELVImYBaChDlTUYfh-71" target="MdyELVImYBaChDlTUYfh-70">
          <mxGeometry width="50" height="50" relative="1" as="geometry">
            <mxPoint x="730" y="910" as="sourcePoint" />
            <mxPoint x="590" y="900" as="targetPoint" />
          </mxGeometry>
        </mxCell>
      </root>
    </mxGraphModel>
  </diagram>
  <diagram id="TZt0KZbuiwQ-uoSdi7Jp" name="Страница 2">
    <mxGraphModel dx="1380" dy="762" grid="1" gridSize="10" guides="1" tooltips="1" connect="1" arrows="1" fold="1" page="1" pageScale="1" pageWidth="2336" pageHeight="1654" math="0" shadow="0">
      <root>
        <mxCell id="0" />
        <mxCell id="1" parent="0" />
        <mxCell id="gA7hfmUc3e8WT1M9ngBF-1" value="продавец" style="shape=umlActor;verticalLabelPosition=bottom;verticalAlign=top;html=1;outlineConnect=0;fontFamily=Helvetica;" vertex="1" parent="1">
          <mxGeometry x="80" y="117.5" width="30" height="60" as="geometry" />
        </mxCell>
        <mxCell id="gA7hfmUc3e8WT1M9ngBF-2" value="" style="rounded=0;whiteSpace=wrap;html=1;fontFamily=Helvetica;" vertex="1" parent="1">
          <mxGeometry x="200" y="117.5" width="120" height="60" as="geometry" />
        </mxCell>
        <mxCell id="gA7hfmUc3e8WT1M9ngBF-3" value="выбор варианта заказа: выбор заказа" style="text;html=1;strokeColor=none;fillColor=none;align=center;verticalAlign=middle;whiteSpace=wrap;rounded=0;fontFamily=Helvetica;" vertex="1" parent="1">
          <mxGeometry x="210" y="127.5" width="100" height="40" as="geometry" />
        </mxCell>
        <mxCell id="gA7hfmUc3e8WT1M9ngBF-4" value="" style="rounded=0;whiteSpace=wrap;html=1;fontFamily=Helvetica;" vertex="1" parent="1">
          <mxGeometry x="440" y="120" width="120" height="60" as="geometry" />
        </mxCell>
        <mxCell id="gA7hfmUc3e8WT1M9ngBF-5" value="" style="rounded=0;whiteSpace=wrap;html=1;fontFamily=Helvetica;" vertex="1" parent="1">
          <mxGeometry x="680" y="120" width="120" height="60" as="geometry" />
        </mxCell>
        <mxCell id="gA7hfmUc3e8WT1M9ngBF-6" value="форма деталей заказа: заказ деталей" style="text;html=1;strokeColor=none;fillColor=none;align=center;verticalAlign=middle;whiteSpace=wrap;rounded=0;fontFamily=Helvetica;" vertex="1" parent="1">
          <mxGeometry x="455" y="130" width="90" height="40" as="geometry" />
        </mxCell>
        <mxCell id="gA7hfmUc3e8WT1M9ngBF-7" value="управляющий заказами:&lt;br&gt;Упр_заказами" style="text;html=1;strokeColor=none;fillColor=none;align=center;verticalAlign=middle;whiteSpace=wrap;rounded=0;fontFamily=Helvetica;" vertex="1" parent="1">
          <mxGeometry x="690" y="130" width="100" height="40" as="geometry" />
        </mxCell>
        <mxCell id="4fJtjzHt5b-KaEz6fRvZ-2" value="" style="endArrow=none;html=1;rounded=0;fontFamily=Helvetica;entryX=0.5;entryY=1;entryDx=0;entryDy=0;startArrow=none;" edge="1" parent="1" source="4fJtjzHt5b-KaEz6fRvZ-6" target="gA7hfmUc3e8WT1M9ngBF-2">
          <mxGeometry width="50" height="50" relative="1" as="geometry">
            <mxPoint x="380" y="760" as="sourcePoint" />
            <mxPoint x="400" y="180" as="targetPoint" />
          </mxGeometry>
        </mxCell>
        <mxCell id="4fJtjzHt5b-KaEz6fRvZ-3" value="" style="endArrow=none;html=1;rounded=0;fontFamily=Helvetica;entryX=0.5;entryY=1;entryDx=0;entryDy=0;startArrow=none;" edge="1" parent="1" source="4fJtjzHt5b-KaEz6fRvZ-13" target="gA7hfmUc3e8WT1M9ngBF-4">
          <mxGeometry width="50" height="50" relative="1" as="geometry">
            <mxPoint x="660" y="760" as="sourcePoint" />
            <mxPoint x="730" y="430" as="targetPoint" />
          </mxGeometry>
        </mxCell>
        <mxCell id="4fJtjzHt5b-KaEz6fRvZ-4" value="" style="endArrow=none;html=1;rounded=0;fontFamily=Helvetica;entryX=0.5;entryY=1;entryDx=0;entryDy=0;startArrow=none;" edge="1" parent="1" source="4fJtjzHt5b-KaEz6fRvZ-44" target="gA7hfmUc3e8WT1M9ngBF-5">
          <mxGeometry width="50" height="50" relative="1" as="geometry">
            <mxPoint x="740" y="1200" as="sourcePoint" />
            <mxPoint x="730" y="430" as="targetPoint" />
          </mxGeometry>
        </mxCell>
        <mxCell id="4fJtjzHt5b-KaEz6fRvZ-7" value="" style="endArrow=classic;html=1;rounded=0;fontFamily=Helvetica;exitX=1;exitY=0;exitDx=0;exitDy=0;entryX=0;entryY=0;entryDx=0;entryDy=0;" edge="1" parent="1" source="4fJtjzHt5b-KaEz6fRvZ-5" target="4fJtjzHt5b-KaEz6fRvZ-6">
          <mxGeometry width="50" height="50" relative="1" as="geometry">
            <mxPoint x="680" y="480" as="sourcePoint" />
            <mxPoint x="730" y="430" as="targetPoint" />
          </mxGeometry>
        </mxCell>
        <mxCell id="4fJtjzHt5b-KaEz6fRvZ-8" value="1. создать ()" style="text;html=1;strokeColor=none;fillColor=none;align=center;verticalAlign=middle;whiteSpace=wrap;rounded=0;fontFamily=Helvetica;" vertex="1" parent="1">
          <mxGeometry x="115" y="250" width="130" height="30" as="geometry" />
        </mxCell>
        <mxCell id="4fJtjzHt5b-KaEz6fRvZ-9" value="" style="endArrow=none;html=1;rounded=0;fontFamily=Helvetica;startArrow=none;" edge="1" parent="1">
          <mxGeometry width="50" height="50" relative="1" as="geometry">
            <mxPoint x="100" y="280" as="sourcePoint" />
            <mxPoint x="100" y="200" as="targetPoint" />
            <Array as="points" />
          </mxGeometry>
        </mxCell>
        <mxCell id="4fJtjzHt5b-KaEz6fRvZ-6" value="" style="rounded=0;whiteSpace=wrap;html=1;fontFamily=Helvetica;" vertex="1" parent="1">
          <mxGeometry x="250" y="280" width="20" height="40" as="geometry" />
        </mxCell>
        <mxCell id="4fJtjzHt5b-KaEz6fRvZ-10" value="" style="endArrow=none;html=1;rounded=0;fontFamily=Helvetica;entryX=0.5;entryY=1;entryDx=0;entryDy=0;startArrow=none;" edge="1" parent="1" source="4fJtjzHt5b-KaEz6fRvZ-12" target="4fJtjzHt5b-KaEz6fRvZ-6">
          <mxGeometry width="50" height="50" relative="1" as="geometry">
            <mxPoint x="380" y="760" as="sourcePoint" />
            <mxPoint x="380" y="180" as="targetPoint" />
          </mxGeometry>
        </mxCell>
        <mxCell id="4fJtjzHt5b-KaEz6fRvZ-5" value="" style="rounded=0;whiteSpace=wrap;html=1;fontFamily=Helvetica;" vertex="1" parent="1">
          <mxGeometry x="90" y="280" width="20" height="60" as="geometry" />
        </mxCell>
        <mxCell id="4fJtjzHt5b-KaEz6fRvZ-11" value="" style="endArrow=none;html=1;rounded=0;fontFamily=Helvetica;startArrow=none;" edge="1" parent="1" target="4fJtjzHt5b-KaEz6fRvZ-5">
          <mxGeometry width="50" height="50" relative="1" as="geometry">
            <mxPoint x="100" y="480" as="sourcePoint" />
            <mxPoint x="180" y="200" as="targetPoint" />
          </mxGeometry>
        </mxCell>
        <mxCell id="4fJtjzHt5b-KaEz6fRvZ-14" value="" style="endArrow=classic;html=1;rounded=0;fontFamily=Helvetica;exitX=1;exitY=0;exitDx=0;exitDy=0;entryX=0;entryY=0;entryDx=0;entryDy=0;" edge="1" parent="1" source="4fJtjzHt5b-KaEz6fRvZ-12" target="4fJtjzHt5b-KaEz6fRvZ-13">
          <mxGeometry width="50" height="50" relative="1" as="geometry">
            <mxPoint x="400" y="380" as="sourcePoint" />
            <mxPoint x="450" y="330" as="targetPoint" />
          </mxGeometry>
        </mxCell>
        <mxCell id="4fJtjzHt5b-KaEz6fRvZ-15" value="2. открыть ()" style="text;html=1;strokeColor=none;fillColor=none;align=center;verticalAlign=middle;whiteSpace=wrap;rounded=0;fontFamily=Helvetica;" vertex="1" parent="1">
          <mxGeometry x="340" y="330" width="110" height="30" as="geometry" />
        </mxCell>
        <mxCell id="4fJtjzHt5b-KaEz6fRvZ-12" value="" style="rounded=0;whiteSpace=wrap;html=1;fontFamily=Helvetica;" vertex="1" parent="1">
          <mxGeometry x="250" y="360" width="20" height="60" as="geometry" />
        </mxCell>
        <mxCell id="4fJtjzHt5b-KaEz6fRvZ-18" value="" style="endArrow=none;html=1;rounded=0;fontFamily=Helvetica;entryX=0.5;entryY=1;entryDx=0;entryDy=0;" edge="1" parent="1" target="4fJtjzHt5b-KaEz6fRvZ-12">
          <mxGeometry width="50" height="50" relative="1" as="geometry">
            <mxPoint x="260" y="1200" as="sourcePoint" />
            <mxPoint x="380" y="320" as="targetPoint" />
            <Array as="points">
              <mxPoint x="260" y="1320" />
              <mxPoint x="260" y="1200" />
            </Array>
          </mxGeometry>
        </mxCell>
        <mxCell id="4fJtjzHt5b-KaEz6fRvZ-13" value="" style="rounded=0;whiteSpace=wrap;html=1;fontFamily=Helvetica;" vertex="1" parent="1">
          <mxGeometry x="490" y="360" width="20" height="40" as="geometry" />
        </mxCell>
        <mxCell id="4fJtjzHt5b-KaEz6fRvZ-19" value="" style="endArrow=none;html=1;rounded=0;fontFamily=Helvetica;entryX=0.5;entryY=1;entryDx=0;entryDy=0;startArrow=none;" edge="1" parent="1" target="4fJtjzHt5b-KaEz6fRvZ-13">
          <mxGeometry width="50" height="50" relative="1" as="geometry">
            <mxPoint x="500" y="560" as="sourcePoint" />
            <mxPoint x="660" y="180" as="targetPoint" />
            <Array as="points">
              <mxPoint x="500" y="520" />
            </Array>
          </mxGeometry>
        </mxCell>
        <mxCell id="4fJtjzHt5b-KaEz6fRvZ-21" value="" style="endArrow=none;html=1;rounded=0;fontFamily=Helvetica;startArrow=none;" edge="1" parent="1" source="4fJtjzHt5b-KaEz6fRvZ-32">
          <mxGeometry width="50" height="50" relative="1" as="geometry">
            <mxPoint x="95" y="1180" as="sourcePoint" />
            <mxPoint x="100" y="480" as="targetPoint" />
          </mxGeometry>
        </mxCell>
        <mxCell id="4fJtjzHt5b-KaEz6fRvZ-25" value="" style="endArrow=classic;html=1;rounded=0;fontFamily=Helvetica;exitX=0.25;exitY=0;exitDx=0;exitDy=0;entryX=0;entryY=0;entryDx=0;entryDy=0;" edge="1" parent="1" source="JeUlA54AwHIkrFs78cri-16" target="4fJtjzHt5b-KaEz6fRvZ-24">
          <mxGeometry width="50" height="50" relative="1" as="geometry">
            <mxPoint x="110" y="480" as="sourcePoint" />
            <mxPoint x="730" y="400" as="targetPoint" />
          </mxGeometry>
        </mxCell>
        <mxCell id="4fJtjzHt5b-KaEz6fRvZ-26" value="3. ввести номер заказа, заказчика и число заказываемых предметов ()" style="text;html=1;strokeColor=none;fillColor=none;align=center;verticalAlign=middle;whiteSpace=wrap;rounded=0;fontFamily=Helvetica;" vertex="1" parent="1">
          <mxGeometry x="515" y="450" width="420" height="30" as="geometry" />
        </mxCell>
        <mxCell id="4fJtjzHt5b-KaEz6fRvZ-30" value="" style="endArrow=none;html=1;rounded=0;fontFamily=Helvetica;" edge="1" parent="1">
          <mxGeometry width="50" height="50" relative="1" as="geometry">
            <mxPoint x="660" y="760" as="sourcePoint" />
            <mxPoint x="660" y="760" as="targetPoint" />
            <Array as="points" />
          </mxGeometry>
        </mxCell>
        <mxCell id="4fJtjzHt5b-KaEz6fRvZ-31" value="" style="endArrow=none;html=1;rounded=0;fontFamily=Helvetica;startArrow=none;" edge="1" parent="1" source="4fJtjzHt5b-KaEz6fRvZ-33">
          <mxGeometry width="50" height="50" relative="1" as="geometry">
            <mxPoint x="660" y="630" as="sourcePoint" />
            <mxPoint x="500" y="560" as="targetPoint" />
          </mxGeometry>
        </mxCell>
        <mxCell id="4fJtjzHt5b-KaEz6fRvZ-34" value="" style="endArrow=classic;html=1;rounded=0;fontFamily=Helvetica;exitX=0.75;exitY=0;exitDx=0;exitDy=0;entryX=0;entryY=0;entryDx=0;entryDy=0;" edge="1" parent="1" source="4fJtjzHt5b-KaEz6fRvZ-32" target="4fJtjzHt5b-KaEz6fRvZ-33">
          <mxGeometry width="50" height="50" relative="1" as="geometry">
            <mxPoint x="680" y="640" as="sourcePoint" />
            <mxPoint x="390" y="600" as="targetPoint" />
          </mxGeometry>
        </mxCell>
        <mxCell id="4fJtjzHt5b-KaEz6fRvZ-37" value="4. сохранить заказ ()" style="text;html=1;strokeColor=none;fillColor=none;align=center;verticalAlign=middle;whiteSpace=wrap;rounded=0;fontFamily=Helvetica;" vertex="1" parent="1">
          <mxGeometry x="170" y="570" width="150" height="30" as="geometry" />
        </mxCell>
        <mxCell id="4fJtjzHt5b-KaEz6fRvZ-33" value="" style="rounded=0;whiteSpace=wrap;html=1;fontFamily=Helvetica;" vertex="1" parent="1">
          <mxGeometry x="490" y="600" width="20" height="40" as="geometry" />
        </mxCell>
        <mxCell id="4fJtjzHt5b-KaEz6fRvZ-41" value="" style="endArrow=none;html=1;rounded=0;fontFamily=Helvetica;exitX=0.5;exitY=1;exitDx=0;exitDy=0;startArrow=none;" edge="1" parent="1" source="4fJtjzHt5b-KaEz6fRvZ-43">
          <mxGeometry width="50" height="50" relative="1" as="geometry">
            <mxPoint x="680" y="630" as="sourcePoint" />
            <mxPoint x="500" y="1310" as="targetPoint" />
          </mxGeometry>
        </mxCell>
        <mxCell id="4fJtjzHt5b-KaEz6fRvZ-45" value="" style="endArrow=classic;html=1;rounded=0;fontFamily=Helvetica;exitX=1;exitY=0;exitDx=0;exitDy=0;entryX=0;entryY=0;entryDx=0;entryDy=0;" edge="1" parent="1" source="4fJtjzHt5b-KaEz6fRvZ-43" target="4fJtjzHt5b-KaEz6fRvZ-44">
          <mxGeometry width="50" height="50" relative="1" as="geometry">
            <mxPoint x="700" y="740" as="sourcePoint" />
            <mxPoint x="750" y="690" as="targetPoint" />
          </mxGeometry>
        </mxCell>
        <mxCell id="4fJtjzHt5b-KaEz6fRvZ-51" value="" style="endArrow=classic;html=1;rounded=0;fontFamily=Helvetica;exitX=1;exitY=0;exitDx=0;exitDy=0;entryX=0;entryY=0;entryDx=0;entryDy=0;" edge="1" parent="1" source="4fJtjzHt5b-KaEz6fRvZ-47" target="4fJtjzHt5b-KaEz6fRvZ-49">
          <mxGeometry width="50" height="50" relative="1" as="geometry">
            <mxPoint x="720" y="870" as="sourcePoint" />
            <mxPoint x="770" y="820" as="targetPoint" />
          </mxGeometry>
        </mxCell>
        <mxCell id="4fJtjzHt5b-KaEz6fRvZ-52" value="" style="endArrow=classic;html=1;rounded=0;fontFamily=Helvetica;exitX=1;exitY=0;exitDx=0;exitDy=0;entryX=0;entryY=0;entryDx=0;entryDy=0;" edge="1" parent="1" source="4fJtjzHt5b-KaEz6fRvZ-48" target="4fJtjzHt5b-KaEz6fRvZ-50">
          <mxGeometry width="50" height="50" relative="1" as="geometry">
            <mxPoint x="790" y="1010" as="sourcePoint" />
            <mxPoint x="840" y="960" as="targetPoint" />
          </mxGeometry>
        </mxCell>
        <mxCell id="4fJtjzHt5b-KaEz6fRvZ-53" value="6. создать новый заказ ()" style="text;html=1;strokeColor=none;fillColor=none;align=center;verticalAlign=middle;whiteSpace=wrap;rounded=0;fontFamily=Helvetica;" vertex="1" parent="1">
          <mxGeometry x="760" y="810" width="180" height="30" as="geometry" />
        </mxCell>
        <mxCell id="4fJtjzHt5b-KaEz6fRvZ-55" value="7.ввести номер заказа, заказчика и число заказываемых предметов ()" style="text;html=1;strokeColor=none;fillColor=none;align=center;verticalAlign=middle;whiteSpace=wrap;rounded=0;fontFamily=Helvetica;" vertex="1" parent="1">
          <mxGeometry x="740" y="930" width="230" height="30" as="geometry" />
        </mxCell>
        <mxCell id="JeUlA54AwHIkrFs78cri-1" value="" style="rounded=0;whiteSpace=wrap;html=1;fontFamily=Helvetica;" vertex="1" parent="1">
          <mxGeometry x="920" y="120" width="120" height="60" as="geometry" />
        </mxCell>
        <mxCell id="JeUlA54AwHIkrFs78cri-2" value="заказ №1234:&lt;br&gt;заказ" style="text;html=1;strokeColor=none;fillColor=none;align=center;verticalAlign=middle;whiteSpace=wrap;rounded=0;fontFamily=Helvetica;" vertex="1" parent="1">
          <mxGeometry x="935" y="130" width="90" height="35" as="geometry" />
        </mxCell>
        <mxCell id="JeUlA54AwHIkrFs78cri-3" value="" style="endArrow=none;html=1;rounded=0;fontFamily=Helvetica;entryX=0.5;entryY=1;entryDx=0;entryDy=0;startArrow=none;" edge="1" parent="1" source="4fJtjzHt5b-KaEz6fRvZ-24" target="JeUlA54AwHIkrFs78cri-1">
          <mxGeometry width="50" height="50" relative="1" as="geometry">
            <mxPoint x="980" y="1200" as="sourcePoint" />
            <mxPoint x="730" y="400" as="targetPoint" />
          </mxGeometry>
        </mxCell>
        <mxCell id="JeUlA54AwHIkrFs78cri-7" value="" style="rounded=0;whiteSpace=wrap;html=1;fontFamily=Helvetica;" vertex="1" parent="1">
          <mxGeometry x="1160" y="120" width="120" height="60" as="geometry" />
        </mxCell>
        <mxCell id="4fJtjzHt5b-KaEz6fRvZ-32" value="" style="rounded=0;whiteSpace=wrap;html=1;fontFamily=Helvetica;" vertex="1" parent="1">
          <mxGeometry x="90" y="600" width="20" height="60" as="geometry" />
        </mxCell>
        <mxCell id="JeUlA54AwHIkrFs78cri-11" value="" style="endArrow=none;html=1;rounded=0;fontFamily=Helvetica;" edge="1" parent="1" target="4fJtjzHt5b-KaEz6fRvZ-32">
          <mxGeometry width="50" height="50" relative="1" as="geometry">
            <mxPoint x="100" y="1320" as="sourcePoint" />
            <mxPoint x="95" y="540" as="targetPoint" />
          </mxGeometry>
        </mxCell>
        <mxCell id="JeUlA54AwHIkrFs78cri-12" value="управляющий транзакциями:&lt;br&gt;Упр_транзакциями" style="text;html=1;strokeColor=none;fillColor=none;align=center;verticalAlign=middle;whiteSpace=wrap;rounded=0;fontFamily=Helvetica;" vertex="1" parent="1">
          <mxGeometry x="1170" y="135" width="100" height="35" as="geometry" />
        </mxCell>
        <mxCell id="4fJtjzHt5b-KaEz6fRvZ-24" value="" style="rounded=0;whiteSpace=wrap;html=1;fontFamily=Helvetica;" vertex="1" parent="1">
          <mxGeometry x="970" y="480" width="20" height="40" as="geometry" />
        </mxCell>
        <mxCell id="JeUlA54AwHIkrFs78cri-13" value="" style="endArrow=none;html=1;rounded=0;fontFamily=Helvetica;entryX=0.5;entryY=1;entryDx=0;entryDy=0;startArrow=none;" edge="1" parent="1" source="4fJtjzHt5b-KaEz6fRvZ-49" target="4fJtjzHt5b-KaEz6fRvZ-24">
          <mxGeometry width="50" height="50" relative="1" as="geometry">
            <mxPoint x="980" y="1200" as="sourcePoint" />
            <mxPoint x="980" y="180" as="targetPoint" />
          </mxGeometry>
        </mxCell>
        <mxCell id="JeUlA54AwHIkrFs78cri-16" value="" style="rounded=0;whiteSpace=wrap;html=1;fontFamily=Helvetica;" vertex="1" parent="1">
          <mxGeometry x="490" y="480" width="20" height="60" as="geometry" />
        </mxCell>
        <mxCell id="4fJtjzHt5b-KaEz6fRvZ-43" value="" style="rounded=0;whiteSpace=wrap;html=1;fontFamily=Helvetica;" vertex="1" parent="1">
          <mxGeometry x="490" y="720" width="20" height="60" as="geometry" />
        </mxCell>
        <mxCell id="JeUlA54AwHIkrFs78cri-17" value="" style="endArrow=none;html=1;rounded=0;fontFamily=Helvetica;exitX=0.5;exitY=1;exitDx=0;exitDy=0;" edge="1" parent="1" source="4fJtjzHt5b-KaEz6fRvZ-33" target="4fJtjzHt5b-KaEz6fRvZ-43">
          <mxGeometry width="50" height="50" relative="1" as="geometry">
            <mxPoint x="500" y="640" as="sourcePoint" />
            <mxPoint x="500" y="1200" as="targetPoint" />
          </mxGeometry>
        </mxCell>
        <mxCell id="4fJtjzHt5b-KaEz6fRvZ-44" value="" style="rounded=0;whiteSpace=wrap;html=1;fontFamily=Helvetica;" vertex="1" parent="1">
          <mxGeometry x="730" y="720" width="20" height="40" as="geometry" />
        </mxCell>
        <mxCell id="JeUlA54AwHIkrFs78cri-18" value="" style="endArrow=none;html=1;rounded=0;fontFamily=Helvetica;entryX=0.5;entryY=1;entryDx=0;entryDy=0;startArrow=none;" edge="1" parent="1" source="4fJtjzHt5b-KaEz6fRvZ-47" target="4fJtjzHt5b-KaEz6fRvZ-44">
          <mxGeometry width="50" height="50" relative="1" as="geometry">
            <mxPoint x="740" y="1200" as="sourcePoint" />
            <mxPoint x="740" y="180" as="targetPoint" />
          </mxGeometry>
        </mxCell>
        <mxCell id="JeUlA54AwHIkrFs78cri-19" value="5. сохранить заказ ()" style="text;html=1;strokeColor=none;fillColor=none;align=center;verticalAlign=middle;whiteSpace=wrap;rounded=0;fontFamily=Helvetica;" vertex="1" parent="1">
          <mxGeometry x="540" y="690" width="140" height="30" as="geometry" />
        </mxCell>
        <mxCell id="JeUlA54AwHIkrFs78cri-20" value="" style="endArrow=none;html=1;rounded=0;fontFamily=Helvetica;entryX=0.5;entryY=1;entryDx=0;entryDy=0;startArrow=none;" edge="1" parent="1" source="JeUlA54AwHIkrFs78cri-30" target="JeUlA54AwHIkrFs78cri-7">
          <mxGeometry width="50" height="50" relative="1" as="geometry">
            <mxPoint x="1220" y="1320" as="sourcePoint" />
            <mxPoint x="1250" y="280" as="targetPoint" />
          </mxGeometry>
        </mxCell>
        <mxCell id="4fJtjzHt5b-KaEz6fRvZ-47" value="" style="rounded=0;whiteSpace=wrap;html=1;fontFamily=Helvetica;" vertex="1" parent="1">
          <mxGeometry x="730" y="840" width="20" height="60" as="geometry" />
        </mxCell>
        <mxCell id="JeUlA54AwHIkrFs78cri-21" value="" style="endArrow=none;html=1;rounded=0;fontFamily=Helvetica;entryX=0.5;entryY=1;entryDx=0;entryDy=0;startArrow=none;" edge="1" parent="1" source="4fJtjzHt5b-KaEz6fRvZ-48" target="4fJtjzHt5b-KaEz6fRvZ-47">
          <mxGeometry width="50" height="50" relative="1" as="geometry">
            <mxPoint x="740" y="1200" as="sourcePoint" />
            <mxPoint x="740" y="760" as="targetPoint" />
          </mxGeometry>
        </mxCell>
        <mxCell id="4fJtjzHt5b-KaEz6fRvZ-49" value="" style="rounded=0;whiteSpace=wrap;html=1;fontFamily=Helvetica;" vertex="1" parent="1">
          <mxGeometry x="970" y="840" width="20" height="40" as="geometry" />
        </mxCell>
        <mxCell id="JeUlA54AwHIkrFs78cri-22" value="" style="endArrow=none;html=1;rounded=0;fontFamily=Helvetica;entryX=0.5;entryY=1;entryDx=0;entryDy=0;startArrow=none;" edge="1" parent="1" source="4fJtjzHt5b-KaEz6fRvZ-50" target="4fJtjzHt5b-KaEz6fRvZ-49">
          <mxGeometry width="50" height="50" relative="1" as="geometry">
            <mxPoint x="980" y="1200" as="sourcePoint" />
            <mxPoint x="980" y="520" as="targetPoint" />
          </mxGeometry>
        </mxCell>
        <mxCell id="4fJtjzHt5b-KaEz6fRvZ-48" value="" style="rounded=0;whiteSpace=wrap;html=1;fontFamily=Helvetica;" vertex="1" parent="1">
          <mxGeometry x="730" y="960" width="20" height="60" as="geometry" />
        </mxCell>
        <mxCell id="JeUlA54AwHIkrFs78cri-23" value="" style="endArrow=none;html=1;rounded=0;fontFamily=Helvetica;entryX=0.5;entryY=1;entryDx=0;entryDy=0;" edge="1" parent="1" target="4fJtjzHt5b-KaEz6fRvZ-48">
          <mxGeometry width="50" height="50" relative="1" as="geometry">
            <mxPoint x="740" y="1320" as="sourcePoint" />
            <mxPoint x="740" y="900" as="targetPoint" />
          </mxGeometry>
        </mxCell>
        <mxCell id="4fJtjzHt5b-KaEz6fRvZ-50" value="" style="rounded=0;whiteSpace=wrap;html=1;fontFamily=Helvetica;" vertex="1" parent="1">
          <mxGeometry x="970" y="960" width="20" height="40" as="geometry" />
        </mxCell>
        <mxCell id="JeUlA54AwHIkrFs78cri-24" value="" style="endArrow=none;html=1;rounded=0;fontFamily=Helvetica;entryX=0.5;entryY=1;entryDx=0;entryDy=0;startArrow=none;" edge="1" parent="1" source="JeUlA54AwHIkrFs78cri-29" target="4fJtjzHt5b-KaEz6fRvZ-50">
          <mxGeometry width="50" height="50" relative="1" as="geometry">
            <mxPoint x="980" y="1320" as="sourcePoint" />
            <mxPoint x="980" y="880" as="targetPoint" />
          </mxGeometry>
        </mxCell>
        <mxCell id="JeUlA54AwHIkrFs78cri-25" value="" style="rounded=0;whiteSpace=wrap;html=1;fontFamily=Helvetica;" vertex="1" parent="1">
          <mxGeometry x="730" y="1080" width="20" height="60" as="geometry" />
        </mxCell>
        <mxCell id="JeUlA54AwHIkrFs78cri-26" value="" style="rounded=0;whiteSpace=wrap;html=1;fontFamily=Helvetica;" vertex="1" parent="1">
          <mxGeometry x="1210" y="1080" width="20" height="40" as="geometry" />
        </mxCell>
        <mxCell id="JeUlA54AwHIkrFs78cri-27" value="" style="endArrow=classic;html=1;rounded=0;fontFamily=Helvetica;exitX=1;exitY=0;exitDx=0;exitDy=0;entryX=0;entryY=0;entryDx=0;entryDy=0;" edge="1" parent="1" source="JeUlA54AwHIkrFs78cri-25" target="JeUlA54AwHIkrFs78cri-26">
          <mxGeometry width="50" height="50" relative="1" as="geometry">
            <mxPoint x="780" y="1110" as="sourcePoint" />
            <mxPoint x="830" y="1060" as="targetPoint" />
          </mxGeometry>
        </mxCell>
        <mxCell id="JeUlA54AwHIkrFs78cri-28" value="8. сохранить заказ ()" style="text;html=1;strokeColor=none;fillColor=none;align=center;verticalAlign=middle;whiteSpace=wrap;rounded=0;fontFamily=Helvetica;" vertex="1" parent="1">
          <mxGeometry x="780" y="1050" width="240" height="30" as="geometry" />
        </mxCell>
        <mxCell id="JeUlA54AwHIkrFs78cri-29" value="" style="rounded=0;whiteSpace=wrap;html=1;fontFamily=Helvetica;" vertex="1" parent="1">
          <mxGeometry x="970" y="1180" width="20" height="60" as="geometry" />
        </mxCell>
        <mxCell id="JeUlA54AwHIkrFs78cri-31" value="" style="endArrow=none;html=1;rounded=0;fontFamily=Helvetica;entryX=0.5;entryY=1;entryDx=0;entryDy=0;" edge="1" parent="1" target="JeUlA54AwHIkrFs78cri-29">
          <mxGeometry width="50" height="50" relative="1" as="geometry">
            <mxPoint x="980" y="1320" as="sourcePoint" />
            <mxPoint x="980" y="1000" as="targetPoint" />
          </mxGeometry>
        </mxCell>
        <mxCell id="JeUlA54AwHIkrFs78cri-30" value="" style="rounded=0;whiteSpace=wrap;html=1;fontFamily=Helvetica;" vertex="1" parent="1">
          <mxGeometry x="1210" y="1180" width="20" height="40" as="geometry" />
        </mxCell>
        <mxCell id="JeUlA54AwHIkrFs78cri-32" value="" style="endArrow=none;html=1;rounded=0;fontFamily=Helvetica;entryX=0.5;entryY=1;entryDx=0;entryDy=0;" edge="1" parent="1" target="JeUlA54AwHIkrFs78cri-30">
          <mxGeometry width="50" height="50" relative="1" as="geometry">
            <mxPoint x="1220" y="1320" as="sourcePoint" />
            <mxPoint x="1220" y="180" as="targetPoint" />
          </mxGeometry>
        </mxCell>
        <mxCell id="JeUlA54AwHIkrFs78cri-33" value="" style="rounded=0;whiteSpace=wrap;html=1;fontFamily=Helvetica;" vertex="1" parent="1">
          <mxGeometry x="1210" y="1280" width="20" height="60" as="geometry" />
        </mxCell>
        <mxCell id="JeUlA54AwHIkrFs78cri-34" value="" style="endArrow=classic;html=1;rounded=0;fontFamily=Helvetica;entryX=0;entryY=0;entryDx=0;entryDy=0;exitX=1;exitY=0;exitDx=0;exitDy=0;" edge="1" parent="1" source="JeUlA54AwHIkrFs78cri-29" target="JeUlA54AwHIkrFs78cri-30">
          <mxGeometry width="50" height="50" relative="1" as="geometry">
            <mxPoint x="680" y="1280" as="sourcePoint" />
            <mxPoint x="730" y="1230" as="targetPoint" />
            <Array as="points">
              <mxPoint x="1090" y="1180" />
            </Array>
          </mxGeometry>
        </mxCell>
        <mxCell id="JeUlA54AwHIkrFs78cri-35" value="9. информация о заказе ()" style="text;html=1;strokeColor=none;fillColor=none;align=center;verticalAlign=middle;whiteSpace=wrap;rounded=0;fontFamily=Helvetica;" vertex="1" parent="1">
          <mxGeometry x="1060" y="1150" width="120" height="20" as="geometry" />
        </mxCell>
      </root>
    </mxGraphModel>
  </diagram>
</mxfile>
